<svg width="41" height="55" viewBox="0 0 41 55" fill="none" xmlns="http://www.w3.org/2000/svg">
<g clip-path="url(#clip0_31_577)">
<path d="M36.6224 24.4036L39.352 21.3848L37.6109 19.8104L34.9405 22.7636C33.3425 21.3453 31.6143 20.1859 29.7879 19.3095L31.925 14.9788L29.8201 13.94L27.6116 18.4153C25.8212 17.7982 23.952 17.4349 22.0237 17.3304V12.121H19.6764V17.3303C17.7482 17.4348 15.8789 17.7982 14.0885 18.4152L11.88 13.94L9.77504 14.9787L11.9122 19.3093C10.0857 20.1857 8.35763 21.3451 6.75963 22.7635L4.08924 19.8103L2.34812 21.3847L5.07772 24.4034C2.41384 27.2519 0.907061 30.3887 0.850098 30.5087C0.91199 30.6393 2.64287 34.2442 5.8058 37.3627C7.67086 39.2016 9.73586 40.6687 11.9435 41.7235C14.7148 43.0475 17.7115 43.7189 20.85 43.7189C23.9887 43.7189 26.9852 43.0475 29.7566 41.7235C31.9643 40.6689 34.0293 39.2016 35.8944 37.3627C39.0573 34.244 40.7882 30.6393 40.8501 30.5087C40.793 30.3887 39.2863 27.2519 36.6224 24.4036ZM34.2462 35.6912C32.5674 37.3465 30.7164 38.6634 28.7447 39.6054C26.2917 40.7773 23.6357 41.3715 20.85 41.3715C18.081 41.3715 15.4397 40.7843 12.9993 39.6263C11.0339 38.6937 9.18745 37.3887 7.51133 35.7476C5.33648 33.6181 4.00693 31.4586 3.47603 30.5076C3.99949 29.5669 5.30229 27.4478 7.45398 25.3263C9.1328 23.671 10.9838 22.354 12.9555 21.412C15.4084 20.2401 18.0645 19.646 20.8502 19.646C23.6192 19.646 26.2605 20.2332 28.701 21.3912C30.6664 22.3239 32.5129 23.6289 34.1889 25.27C36.3638 27.3993 37.6935 29.5589 38.2243 30.5099C37.7008 31.4507 36.398 33.5697 34.2462 35.6912Z" fill="#679DDD"/>
<path d="M24.2866 22.8407C23.0136 22.8407 21.8134 23.2692 20.8498 24.0448C19.8862 23.2691 18.686 22.8407 17.4129 22.8407C14.3814 22.8407 11.915 25.3071 11.915 28.3386C11.915 29.8711 12.6504 31.3487 14.2995 33.1298C17.0543 36.1048 20.8499 39.3069 20.8499 39.3069C20.8499 39.3069 24.6474 36.1025 27.4 33.1298C29.0491 31.3487 29.7845 29.8711 29.7845 28.3386C29.7845 25.3071 27.3181 22.8407 24.2866 22.8407ZM16.0219 31.5349C14.805 30.2207 14.2624 29.235 14.2624 28.3386C14.2624 26.6015 15.6756 25.1881 17.4129 25.1881C18.402 25.1881 19.3149 25.6401 19.9173 26.4281L20.8497 27.6479L21.7822 26.4281C22.3846 25.6401 23.2974 25.1881 24.2865 25.1881C26.0237 25.1881 27.437 26.6013 27.437 28.3386C27.437 29.235 26.8944 30.2207 25.6775 31.5349C23.8189 33.5421 21.8837 35.3076 20.8496 36.22C19.8161 35.3081 17.8818 33.5435 16.0219 31.5349Z" fill="#679DDD"/>
</g>
<defs>
<clipPath id="clip0_31_577">
<rect width="40" height="54" fill="white" transform="translate(0.850098 0.920044)"/>
</clipPath>
</defs>
</svg>
