<svg width="33" height="41" viewBox="0 0 33 41" fill="none" xmlns="http://www.w3.org/2000/svg">
<path d="M27.3559 10.4424L32.7797 3.66279C31.4657 3.5042 21.0464 0.732357 10.6437 2.96373V0.920044H8.2907V29.3042C6.26329 29.828 4.76132 31.6724 4.76132 33.8612V33.9796C2.07966 34.5261 0.0554199 36.9029 0.0554199 39.7436V40.92H18.879V39.7436C18.879 36.9028 16.8547 34.5261 14.1731 33.9796V33.8612C14.1731 31.6725 12.6711 29.828 10.6437 29.3042V19.5212C22.6699 17.0907 31.3599 20.0767 32.9846 20.2925L27.3559 10.4424ZM16.3243 38.5671H2.60993C3.09542 37.1976 4.40388 36.2141 5.93778 36.2141H12.9966C14.5304 36.2141 15.8388 37.1976 16.3243 38.5671ZM11.8201 33.8612H7.11424C7.11424 32.5638 8.16978 31.5083 9.46716 31.5083C10.7646 31.5083 11.8201 32.5638 11.8201 33.8612ZM10.6437 17.1219V5.37267C15.8459 4.1751 21.7102 4.13691 28.4897 5.25856L24.5196 10.2212L28.347 16.9193C22.461 15.923 16.5228 15.9905 10.6437 17.1219Z" fill="#679DDD"/>
</svg>
