<svg width="41" height="36" viewBox="0 0 41 36" fill="none" xmlns="http://www.w3.org/2000/svg">
<path d="M29.6437 0.844239C29.4239 0.622681 29.1243 0.498169 28.812 0.498169C28.4999 0.498169 28.2004 0.622986 27.9804 0.844544L24.5185 4.33332C24.2893 4.56403 23.985 4.69129 23.6622 4.69129C23.4162 4.69129 17.5321 4.69129 16.5009 4.69129C16.1778 4.69129 15.8738 4.56403 15.6425 4.33149L12.2413 0.920838C12.0215 0.700196 11.7228 0.576294 11.4115 0.576294H11.4103C11.0984 0.576599 10.7996 0.701417 10.5799 0.922671L0.452012 11.1253C-0.00239474 11.5831 -0.00147949 12.3219 0.454149 12.7788L3.35882 15.6889C3.90905 16.2434 4.21209 16.9811 4.21209 17.7663C4.21209 18.7822 4.49712 19.7539 5.02691 20.591C3.87395 21.9929 3.94842 24.081 5.25152 25.3935C5.88232 26.0292 6.70845 26.3966 7.59436 26.44C7.63496 27.2969 7.97919 28.1417 8.62737 28.7944C9.25818 29.4301 10.0843 29.7975 10.9705 29.8409C11.0108 30.6978 11.3554 31.5425 12.0033 32.1953C13.0234 33.2231 14.4874 33.4823 15.7237 33.0382C15.8939 33.5301 16.1735 33.9916 16.5629 34.3837C17.9542 35.7857 20.2104 35.786 21.6019 34.3837L22.0966 33.8857C22.4058 33.5741 22.6453 33.2186 22.8163 32.8392C24.2002 34.0621 26.3334 34.0349 27.682 32.6763C28.3302 32.0235 28.6744 31.1788 28.7147 30.3218C29.6006 30.2788 30.427 29.9111 31.0578 29.2754C31.7061 28.6226 32.0503 27.7779 32.0908 26.9209C32.9765 26.8779 33.8029 26.5102 34.4337 25.8748C35.7295 24.5695 35.811 22.4971 34.6781 21.0951C35.5037 19.9321 35.9507 18.5439 35.9507 17.086C35.9507 16.7445 36.0877 16.4107 36.3267 16.1699L39.7716 12.6982C40.225 12.2414 40.225 11.504 39.7716 11.0472L29.6437 0.844239ZM6.91502 21.9926L8.60296 20.2922C9.07693 19.8146 9.84105 19.8143 10.3153 20.2922C10.7944 20.7747 10.7944 21.5596 10.3153 22.0418L8.62737 23.7426C8.15316 24.2202 7.38928 24.2202 6.91502 23.7426C6.43621 23.26 6.43621 22.4751 6.91502 21.9926ZM10.2909 25.3935L13.6668 21.9926C14.141 21.515 14.9052 21.5147 15.3794 21.9926C15.8582 22.4751 15.8582 23.26 15.3794 23.7426C14.1761 24.9547 14.112 25.0191 12.0033 27.1434C11.529 27.6207 10.7652 27.621 10.2909 27.1431C9.81209 26.6609 9.81209 25.876 10.2909 25.3935ZM13.6668 30.544C13.1879 30.0618 13.1879 29.2769 13.6668 28.7944L15.3547 27.094C15.8289 26.6164 16.5931 26.6164 17.0673 27.094C17.5095 27.5395 17.5425 28.2424 17.1677 28.7276C17.0646 28.8228 17.2181 28.6696 15.3794 30.544C14.9052 31.0219 14.1413 31.0222 13.6668 30.544ZM20.4334 32.2344L19.9387 32.7324C19.4645 33.2103 18.7006 33.2103 18.2264 32.7324C17.79 32.2929 17.7524 31.603 18.1114 31.119C18.7547 30.4686 18.7232 30.5071 18.8352 30.3844C19.3138 30.0081 19.997 30.0454 20.4334 30.4848C20.9123 30.9673 20.912 31.7522 20.4334 32.2344ZM32.7705 24.2235C32.2963 24.7011 31.5321 24.7011 31.0578 24.2235L28.8755 22.025C28.4196 21.5657 27.6774 21.563 27.2181 22.0189C26.7588 22.4748 26.7561 23.2167 27.212 23.676L29.3946 25.8745C29.8735 26.357 29.8735 27.1419 29.3946 27.624C28.9204 28.102 28.1562 28.102 27.682 27.624L25.4997 25.4256C25.0434 24.9663 24.3015 24.9636 23.8422 25.4195C23.383 25.8754 23.3802 26.6176 23.8361 27.0769L26.0185 29.2754C26.4976 29.7578 26.4976 30.5428 26.0185 31.0249C25.5445 31.5028 24.7804 31.5028 24.3058 31.0249C22.0084 28.7294 22.1186 28.7797 21.8873 28.64C21.2904 28.1261 20.5509 27.8282 19.763 27.7879C19.7206 26.9344 19.3763 26.0933 18.7308 25.4427C18.3997 25.1094 18.0146 24.85 17.5956 24.6724C18.3903 23.3043 18.2062 21.5135 17.0426 20.3417C15.85 19.1402 14.0659 18.9946 12.7357 19.7737C12.5633 19.362 12.3115 18.976 11.9788 18.6412C10.5872 17.2392 8.33137 17.2392 6.93943 18.6412L6.75269 18.8295C6.62391 18.495 6.55585 18.1358 6.55585 17.7663C6.55585 16.3582 6.01111 15.0343 5.01989 14.0355L2.93706 11.9487L11.4133 3.40955L13.9811 5.98432C14.5548 6.56231 15.2906 6.91783 16.0856 7.01001L10.8487 13.2939C10.4347 13.7913 10.5018 14.5302 10.9989 14.9443C12.201 15.9462 13.7214 16.4201 15.2799 16.2786C16.8381 16.1369 18.2484 15.3969 19.2515 14.1929C19.6711 13.6894 20.377 13.5377 20.9687 13.8234C22.1763 14.4069 23.5035 14.6199 24.809 14.4533L32.7705 22.4736C33.2493 22.9561 33.2493 23.741 32.7705 24.2235ZM34.6635 14.5186C33.9821 15.2049 33.607 16.1168 33.607 17.086C33.607 17.9039 33.3949 18.6882 32.9988 19.3767L27.299 13.6351C28.4641 12.9869 29.4197 12.0125 30.0535 10.8046C30.3541 10.2314 30.1332 9.52315 29.56 9.22255C28.9869 8.92166 28.2786 9.14261 27.978 9.71569C27.342 10.9279 26.2504 11.7369 25.0276 12.0366C24.9738 12.0448 24.9204 12.0564 24.8683 12.0723C23.9286 12.2667 22.9212 12.1639 21.9883 11.7131C20.4261 10.9584 18.5606 11.3612 17.4497 12.6943C16.8485 13.4154 16.0026 13.8594 15.0678 13.9445C14.5365 13.9928 14.0128 13.9217 13.527 13.7413L18.9521 7.23037C19.3772 7.10064 19.8179 7.025 20.2622 7.025H23.6622C24.6144 7.025 25.5091 6.66184 26.1821 5.98432L28.8123 3.33356L37.2889 11.8727L34.6635 14.5186Z" fill="#679DDD"/>
</svg>
